<svg width="200px" height="200px" fill="none" xmlns="http://www.w3.org/2000/svg">
	<path style=" stroke:none;fill-rule:evenodd;fill:rgb(153,144,131);fill-opacity:1;" d="M 8 16 C 12.417969 16 16 12.417969 16 8 C 16 3.582031 12.417969 0 8 0 C 3.582031 0 0 3.582031 0 8 C 0 12.417969 3.582031 16 8 16 Z M 6.679688 4.820312 L 9.40625 4.820312 C 10.675781 4.820312 11.601562 5.273438 12.207031 5.941406 C 12.8125 6.609375 13.09375 7.476562 13.09375 8.292969 C 13.09375 10.078125 11.695312 11.769531 9.417969 11.769531 L 6.679688 11.769531 Z M 7.894531 10.648438 L 9.300781 10.648438 C 10.355469 10.648438 10.988281 10.253906 11.359375 9.765625 C 11.738281 9.277344 11.855469 8.683594 11.855469 8.292969 C 11.855469 7.648438 11.652344 7.0625 11.230469 6.636719 C 10.808594 6.214844 10.160156 5.9375 9.25 5.9375 L 7.894531 5.9375 Z M 4.179688 4.835938 L 4.179688 11.78125 L 5.394531 11.78125 L 5.394531 4.835938 Z M 5.269531 11.65625 L 4.304688 11.65625 Z M 5.542969 3.570312 C 5.542969 3.980469 5.207031 4.324219 4.789062 4.324219 C 4.367188 4.324219 4.03125 3.980469 4.03125 3.570312 C 4.03125 3.148438 4.367188 2.8125 4.789062 2.8125 C 5.207031 2.8125 5.542969 3.15625 5.542969 3.570312 Z M 5.542969 3.570312 "/>
</svg>
